<?xml version="1.0" standalone="no"?>
<!DOCTYPE svg PUBLIC "-//W3C//DTD SVG 20010904//EN"
 "http://www.w3.org/TR/2001/REC-SVG-20010904/DTD/svg10.dtd">
<svg version="1.0" xmlns="http://www.w3.org/2000/svg"
 width="512.000000pt" height="512.000000pt" viewBox="0 0 512.000000 512.000000"
 preserveAspectRatio="xMidYMid meet">

<g transform="translate(0.000000,512.000000) scale(0.100000,-0.100000)"
fill="#000000" stroke="none">
<path d="M3418 4399 c-17 -9 -18 -35 -18 -314 0 -300 0 -304 21 -316 16 -8 28
-8 45 0 l24 11 0 304 c0 292 -1 306 -19 316 -24 12 -31 12 -53 -1z"/>
<path d="M2766 4184 c-9 -8 -16 -23 -16 -32 0 -10 94 -111 208 -225 187 -187
212 -208 238 -205 24 2 30 8 32 32 3 26 -18 51 -205 238 -114 114 -215 208
-225 208 -9 0 -24 -7 -32 -16z"/>
<path d="M3846 3941 c-188 -188 -208 -211 -202 -235 4 -17 15 -28 32 -32 24
-6 46 13 241 208 196 197 213 217 205 239 -6 17 -18 25 -38 27 -26 2 -52 -21
-238 -207z"/>
<path d="M1062 3638 c-19 -25 -352 -675 -352 -689 0 -18 1534 -2220 1555
-2231 8 -5 24 -7 34 -3 18 5 1550 2194 1559 2227 3 15 -320 658 -350 696 -8 9
-265 12 -1223 12 -958 0 -1215 -3 -1223 -12z m828 -88 c0 -5 -57 -126 -126
-269 l-126 -259 -247 -6 c-135 -3 -315 -9 -400 -12 l-154 -6 138 268 c76 148
142 275 148 282 12 15 767 18 767 2z m800 -252 c72 -145 130 -266 130 -270 0
-5 -241 -8 -535 -8 -294 0 -535 3 -535 6 0 4 58 125 129 270 l130 264 276 0
276 0 129 -262z m768 230 c11 -18 77 -145 147 -282 l128 -249 -149 7 c-82 3
-262 9 -401 12 l-251 7 -126 259 c-69 142 -126 263 -126 268 0 6 140 10 379
10 l379 0 20 -32z m-625 -605 c3 -7 -527 -1918 -545 -1963 -4 -10 -8 -6 -13
14 -5 16 -128 460 -275 985 -147 526 -265 959 -263 964 2 4 249 7 548 7 299 0
546 -3 548 -7z m-942 -933 c142 -509 257 -929 256 -934 -4 -11 -1287 1828
-1287 1843 0 11 219 17 584 16 l189 0 258 -925z m1812 910 c5 -4 -280 -423
-633 -930 -353 -506 -644 -919 -647 -917 -3 4 493 1801 512 1856 5 11 66 13
383 6 207 -4 381 -10 385 -15z"/>
<path d="M3776 3528 c-20 -29 -20 -34 4 -58 19 -19 33 -20 303 -20 240 0 286
2 305 16 26 18 28 46 6 68 -13 14 -55 16 -309 16 -292 0 -294 0 -309 -22z"/>
</g>
</svg>
