<svg version="1.0" xmlns="http://www.w3.org/2000/svg"
 width="100" height="100" viewBox="0 0 1000.000000 1000.000000"
 preserveAspectRatio="xMidYMid meet">

<g transform="translate(0.000000,1000.000000) scale(0.100000,-0.100000)"
fill="#000000" stroke="none">
<path d="M4830 9751 c-246 -54 -468 -215 -630 -457 -50 -75 -219 -403 -574
-1113 l-504 -1006 -1118 -174 c-616 -96 -1161 -185 -1211 -197 -619 -157 -922
-678 -719 -1234 43 -117 149 -282 250 -389 45 -47 1264 -1230 1604 -1555 l32
-31 -192 -1135 -192 -1135 0 -180 c-1 -154 3 -193 22 -268 61 -245 191 -435
378 -557 237 -155 530 -182 852 -78 116 36 181 70 1282 658 487 260 890 473
896 473 6 0 443 -229 970 -510 527 -281 995 -529 1039 -551 238 -119 504 -160
732 -113 111 23 192 58 299 127 278 182 430 535 395 917 -5 63 -93 611 -195
1219 -103 607 -186 1111 -186 1119 0 9 365 368 811 799 446 432 838 818 872
860 120 149 192 287 233 448 23 88 25 110 21 247 -4 118 -10 165 -27 220 -106
335 -389 570 -793 660 -43 9 -574 94 -1180 189 l-1102 171 -510 1016 c-293
583 -534 1052 -567 1101 -70 105 -180 224 -268 290 -79 60 -241 140 -330 163
-102 26 -288 29 -390 6z m314 -579 c74 -34 151 -108 211 -201 24 -36 295 -571
604 -1188 308 -618 567 -1123 574 -1123 34 0 2474 -384 2544 -400 95 -23 200
-73 260 -125 25 -21 55 -62 74 -100 29 -60 31 -70 27 -145 -4 -68 -11 -92 -46
-162 -22 -46 -63 -108 -89 -137 -26 -30 -388 -383 -803 -785 -415 -401 -821
-794 -902 -874 l-146 -144 215 -1276 c211 -1253 215 -1279 210 -1392 -5 -141
-29 -211 -94 -281 -87 -93 -207 -120 -361 -81 -105 27 -61 4 -1330 680 -589
315 -1077 572 -1084 572 -6 0 -520 -271 -1142 -602 -729 -389 -1161 -613
-1216 -632 -70 -25 -102 -30 -180 -30 -84 -1 -101 2 -152 27 -31 15 -71 44
-89 64 -69 80 -106 216 -96 352 3 42 101 639 217 1327 115 688 210 1257 210
1265 0 9 -413 414 -917 902 -505 488 -935 911 -957 940 -81 111 -125 236 -112
321 23 140 140 251 321 305 39 12 633 109 1322 216 689 107 1260 199 1271 206
10 6 263 500 561 1098 299 597 563 1121 588 1164 139 240 322 326 507 239z"/>
</g>
</svg>
